<mxfile host="app.diagrams.net" modified="2024-01-30T16:16:39.952Z" agent="Mozilla/5.0 (Windows NT 10.0; Win64; x64; rv:122.0) Gecko/20100101 Firefox/122.0" etag="Bu6u6sLHEux2JGS8u7Y_" version="22.1.22" type="device">
  <diagram name="Seite-1" id="_Qs0o1aylEsGWflsRbkT">
    <mxGraphModel dx="1050" dy="503" grid="1" gridSize="8" guides="1" tooltips="1" connect="1" arrows="1" fold="1" page="1" pageScale="1" pageWidth="827" pageHeight="1169" math="0" shadow="0">
      <root>
        <mxCell id="0" />
        <mxCell id="1" parent="0" />
        <mxCell id="zrxdAcF9VSbCfGRHAop3-1" value="Start" style="rounded=1;whiteSpace=wrap;html=1;" vertex="1" parent="1">
          <mxGeometry x="392" y="80" width="120" height="60" as="geometry" />
        </mxCell>
        <mxCell id="zrxdAcF9VSbCfGRHAop3-3" value="Besucher steht am Eingang " style="rounded=0;whiteSpace=wrap;html=1;" vertex="1" parent="1">
          <mxGeometry x="392" y="184" width="120" height="60" as="geometry" />
        </mxCell>
        <mxCell id="zrxdAcF9VSbCfGRHAop3-4" value="&lt;font style=&quot;font-size: 10px;&quot;&gt;Bist du während der Öffnungszeiten &lt;br&gt;im Zoo?&lt;br&gt;(09:00 - 19:00)&lt;/font&gt;" style="rhombus;whiteSpace=wrap;html=1;" vertex="1" parent="1">
          <mxGeometry x="352" y="296" width="200" height="112" as="geometry" />
        </mxCell>
        <mxCell id="zrxdAcF9VSbCfGRHAop3-6" value="" style="endArrow=classic;html=1;rounded=0;exitX=1;exitY=0.5;exitDx=0;exitDy=0;" edge="1" parent="1" source="zrxdAcF9VSbCfGRHAop3-4">
          <mxGeometry width="50" height="50" relative="1" as="geometry">
            <mxPoint x="446" y="426" as="sourcePoint" />
            <mxPoint x="702.9473684210527" y="778" as="targetPoint" />
            <Array as="points">
              <mxPoint x="696" y="352" />
            </Array>
          </mxGeometry>
        </mxCell>
        <mxCell id="zrxdAcF9VSbCfGRHAop3-11" value="Ende" style="rounded=1;whiteSpace=wrap;html=1;" vertex="1" parent="1">
          <mxGeometry x="648" y="776" width="120" height="60" as="geometry" />
        </mxCell>
        <mxCell id="zrxdAcF9VSbCfGRHAop3-12" style="edgeStyle=orthogonalEdgeStyle;rounded=0;orthogonalLoop=1;jettySize=auto;html=1;exitX=0.5;exitY=1;exitDx=0;exitDy=0;" edge="1" parent="1" source="zrxdAcF9VSbCfGRHAop3-4" target="zrxdAcF9VSbCfGRHAop3-4">
          <mxGeometry relative="1" as="geometry" />
        </mxCell>
        <mxCell id="zrxdAcF9VSbCfGRHAop3-13" value="Bist du Erwachsen?&lt;br&gt;(&amp;gt;=18)" style="rhombus;whiteSpace=wrap;html=1;" vertex="1" parent="1">
          <mxGeometry x="192" y="504" width="186" height="96" as="geometry" />
        </mxCell>
        <mxCell id="zrxdAcF9VSbCfGRHAop3-14" value="" style="endArrow=classic;html=1;rounded=0;exitX=0;exitY=0.5;exitDx=0;exitDy=0;entryX=0.5;entryY=0;entryDx=0;entryDy=0;" edge="1" parent="1" source="zrxdAcF9VSbCfGRHAop3-4" target="zrxdAcF9VSbCfGRHAop3-13">
          <mxGeometry width="50" height="50" relative="1" as="geometry">
            <mxPoint x="392" y="514" as="sourcePoint" />
            <mxPoint x="288" y="488" as="targetPoint" />
            <Array as="points">
              <mxPoint x="288" y="352" />
            </Array>
          </mxGeometry>
        </mxCell>
        <mxCell id="zrxdAcF9VSbCfGRHAop3-15" value="Zahle 20€" style="rounded=0;whiteSpace=wrap;html=1;" vertex="1" parent="1">
          <mxGeometry x="24" y="640" width="120" height="60" as="geometry" />
        </mxCell>
        <mxCell id="zrxdAcF9VSbCfGRHAop3-16" value="Bist du älter als 3?" style="rhombus;whiteSpace=wrap;html=1;" vertex="1" parent="1">
          <mxGeometry x="360" y="672" width="168" height="80" as="geometry" />
        </mxCell>
        <mxCell id="zrxdAcF9VSbCfGRHAop3-23" value="" style="endArrow=classic;html=1;rounded=0;exitX=1;exitY=0.5;exitDx=0;exitDy=0;entryX=0.5;entryY=0;entryDx=0;entryDy=0;" edge="1" parent="1" source="zrxdAcF9VSbCfGRHAop3-13" target="zrxdAcF9VSbCfGRHAop3-16">
          <mxGeometry width="50" height="50" relative="1" as="geometry">
            <mxPoint x="392" y="538" as="sourcePoint" />
            <mxPoint x="472" y="656" as="targetPoint" />
            <Array as="points">
              <mxPoint x="448" y="552" />
            </Array>
          </mxGeometry>
        </mxCell>
        <mxCell id="zrxdAcF9VSbCfGRHAop3-24" value="" style="endArrow=classic;html=1;rounded=0;exitX=0;exitY=0.5;exitDx=0;exitDy=0;entryX=0.5;entryY=0;entryDx=0;entryDy=0;" edge="1" parent="1" source="zrxdAcF9VSbCfGRHAop3-13" target="zrxdAcF9VSbCfGRHAop3-15">
          <mxGeometry width="50" height="50" relative="1" as="geometry">
            <mxPoint x="-80" y="584" as="sourcePoint" />
            <mxPoint x="96" y="552" as="targetPoint" />
            <Array as="points">
              <mxPoint x="84" y="552" />
            </Array>
          </mxGeometry>
        </mxCell>
        <mxCell id="zrxdAcF9VSbCfGRHAop3-25" value="Ja" style="text;html=1;align=center;verticalAlign=middle;resizable=0;points=[];autosize=1;strokeColor=none;fillColor=none;" vertex="1" parent="1">
          <mxGeometry x="148" y="517" width="32" height="32" as="geometry" />
        </mxCell>
        <mxCell id="zrxdAcF9VSbCfGRHAop3-26" value="Nein" style="text;html=1;align=center;verticalAlign=middle;resizable=0;points=[];autosize=1;strokeColor=none;fillColor=none;" vertex="1" parent="1">
          <mxGeometry x="400" y="509" width="40" height="32" as="geometry" />
        </mxCell>
        <mxCell id="zrxdAcF9VSbCfGRHAop3-27" value="Ja" style="text;html=1;align=center;verticalAlign=middle;resizable=0;points=[];autosize=1;strokeColor=none;fillColor=none;" vertex="1" parent="1">
          <mxGeometry x="308" y="317" width="32" height="32" as="geometry" />
        </mxCell>
        <mxCell id="zrxdAcF9VSbCfGRHAop3-28" value="Nein" style="text;html=1;align=center;verticalAlign=middle;resizable=0;points=[];autosize=1;strokeColor=none;fillColor=none;" vertex="1" parent="1">
          <mxGeometry x="600" y="317" width="40" height="32" as="geometry" />
        </mxCell>
        <mxCell id="zrxdAcF9VSbCfGRHAop3-29" value="" style="endArrow=classic;html=1;rounded=0;exitX=0.5;exitY=1;exitDx=0;exitDy=0;entryX=0.5;entryY=0;entryDx=0;entryDy=0;" edge="1" parent="1" source="zrxdAcF9VSbCfGRHAop3-3" target="zrxdAcF9VSbCfGRHAop3-4">
          <mxGeometry width="50" height="50" relative="1" as="geometry">
            <mxPoint x="392" y="442" as="sourcePoint" />
            <mxPoint x="442" y="392" as="targetPoint" />
          </mxGeometry>
        </mxCell>
        <mxCell id="zrxdAcF9VSbCfGRHAop3-30" value="" style="endArrow=classic;html=1;rounded=0;exitX=0.5;exitY=1;exitDx=0;exitDy=0;entryX=0.5;entryY=0;entryDx=0;entryDy=0;" edge="1" parent="1" source="zrxdAcF9VSbCfGRHAop3-1" target="zrxdAcF9VSbCfGRHAop3-3">
          <mxGeometry width="50" height="50" relative="1" as="geometry">
            <mxPoint x="392" y="298" as="sourcePoint" />
            <mxPoint x="442" y="248" as="targetPoint" />
          </mxGeometry>
        </mxCell>
        <mxCell id="zrxdAcF9VSbCfGRHAop3-31" value="Zahle 15€" style="rounded=0;whiteSpace=wrap;html=1;" vertex="1" parent="1">
          <mxGeometry x="256" y="776" width="112" height="40" as="geometry" />
        </mxCell>
        <mxCell id="zrxdAcF9VSbCfGRHAop3-32" value="Kostenloser Eintritt" style="rounded=0;whiteSpace=wrap;html=1;" vertex="1" parent="1">
          <mxGeometry x="504" y="776" width="120" height="40" as="geometry" />
        </mxCell>
        <mxCell id="zrxdAcF9VSbCfGRHAop3-35" value="" style="endArrow=classic;html=1;rounded=0;exitX=0;exitY=0.5;exitDx=0;exitDy=0;entryX=0.5;entryY=0;entryDx=0;entryDy=0;" edge="1" parent="1" source="zrxdAcF9VSbCfGRHAop3-16" target="zrxdAcF9VSbCfGRHAop3-31">
          <mxGeometry width="50" height="50" relative="1" as="geometry">
            <mxPoint x="392" y="634" as="sourcePoint" />
            <mxPoint x="442" y="584" as="targetPoint" />
            <Array as="points">
              <mxPoint x="312" y="712" />
            </Array>
          </mxGeometry>
        </mxCell>
        <mxCell id="zrxdAcF9VSbCfGRHAop3-36" value="" style="endArrow=classic;html=1;rounded=0;exitX=1;exitY=0.5;exitDx=0;exitDy=0;entryX=0.5;entryY=0;entryDx=0;entryDy=0;" edge="1" parent="1" source="zrxdAcF9VSbCfGRHAop3-16" target="zrxdAcF9VSbCfGRHAop3-32">
          <mxGeometry width="50" height="50" relative="1" as="geometry">
            <mxPoint x="392" y="634" as="sourcePoint" />
            <mxPoint x="442" y="584" as="targetPoint" />
            <Array as="points">
              <mxPoint x="564" y="712" />
            </Array>
          </mxGeometry>
        </mxCell>
        <mxCell id="zrxdAcF9VSbCfGRHAop3-37" value="Du kannst den Zoo jetzt betreten." style="rounded=1;whiteSpace=wrap;html=1;" vertex="1" parent="1">
          <mxGeometry x="360" y="968" width="120" height="60" as="geometry" />
        </mxCell>
        <mxCell id="zrxdAcF9VSbCfGRHAop3-38" value="" style="endArrow=classic;html=1;rounded=0;exitX=0.5;exitY=1;exitDx=0;exitDy=0;entryX=0;entryY=0.5;entryDx=0;entryDy=0;" edge="1" parent="1" source="zrxdAcF9VSbCfGRHAop3-15" target="zrxdAcF9VSbCfGRHAop3-37">
          <mxGeometry width="50" height="50" relative="1" as="geometry">
            <mxPoint x="392" y="898" as="sourcePoint" />
            <mxPoint x="442" y="848" as="targetPoint" />
            <Array as="points">
              <mxPoint x="80" y="998" />
            </Array>
          </mxGeometry>
        </mxCell>
        <mxCell id="zrxdAcF9VSbCfGRHAop3-39" value="" style="endArrow=classic;html=1;rounded=0;exitX=0.5;exitY=1;exitDx=0;exitDy=0;entryX=0.25;entryY=0;entryDx=0;entryDy=0;" edge="1" parent="1" source="zrxdAcF9VSbCfGRHAop3-31" target="zrxdAcF9VSbCfGRHAop3-37">
          <mxGeometry width="50" height="50" relative="1" as="geometry">
            <mxPoint x="392" y="898" as="sourcePoint" />
            <mxPoint x="442" y="848" as="targetPoint" />
            <Array as="points">
              <mxPoint x="312" y="904" />
            </Array>
          </mxGeometry>
        </mxCell>
        <mxCell id="zrxdAcF9VSbCfGRHAop3-40" value="" style="endArrow=classic;html=1;rounded=0;exitX=0.5;exitY=1;exitDx=0;exitDy=0;entryX=1;entryY=0.5;entryDx=0;entryDy=0;" edge="1" parent="1" source="zrxdAcF9VSbCfGRHAop3-32" target="zrxdAcF9VSbCfGRHAop3-37">
          <mxGeometry width="50" height="50" relative="1" as="geometry">
            <mxPoint x="392" y="898" as="sourcePoint" />
            <mxPoint x="442" y="848" as="targetPoint" />
            <Array as="points">
              <mxPoint x="560" y="904" />
            </Array>
          </mxGeometry>
        </mxCell>
        <mxCell id="zrxdAcF9VSbCfGRHAop3-41" value="Ja" style="text;html=1;align=center;verticalAlign=middle;resizable=0;points=[];autosize=1;strokeColor=none;fillColor=none;" vertex="1" parent="1">
          <mxGeometry x="324" y="685" width="32" height="32" as="geometry" />
        </mxCell>
        <mxCell id="zrxdAcF9VSbCfGRHAop3-42" value="Nein" style="text;html=1;align=center;verticalAlign=middle;resizable=0;points=[];autosize=1;strokeColor=none;fillColor=none;" vertex="1" parent="1">
          <mxGeometry x="528" y="677" width="40" height="32" as="geometry" />
        </mxCell>
      </root>
    </mxGraphModel>
  </diagram>
</mxfile>
